<svg aria-hidden="true" style="position: absolute; width: 0; height: 0; overflow: hidden;" version="1.1" xmlns="http://www.w3.org/2000/svg" xmlns:xlink="http://www.w3.org/1999/xlink">
<defs>
<symbol id="icon-arrow-left" viewBox="0 0 32 32">
<path d="M24.148 2.819c-0.215-0.113-0.458-0.165-0.7-0.15s-0.477 0.096-0.677 0.234l-17.333 12c-0.177 0.123-0.321 0.287-0.42 0.478s-0.152 0.403-0.152 0.618c0 0.215 0.052 0.428 0.152 0.619s0.244 0.355 0.42 0.478l17.333 12c0.2 0.138 0.434 0.219 0.677 0.234s0.485-0.037 0.701-0.15 0.396-0.283 0.522-0.491c0.126-0.208 0.193-0.447 0.193-0.69v-24c0-0.243-0.067-0.482-0.193-0.69s-0.307-0.378-0.522-0.491zM22.196 25.455l-13.657-9.455 13.657-9.455v18.909z"></path>
</symbol>
<symbol id="icon-arrow-right" viewBox="0 0 32 32">
<path d="M7.852 2.819c0.215-0.113 0.458-0.165 0.7-0.15s0.477 0.096 0.677 0.234l17.333 12c0.177 0.123 0.321 0.287 0.42 0.478s0.152 0.403 0.152 0.618c0 0.215-0.052 0.428-0.152 0.619s-0.244 0.355-0.42 0.478l-17.333 12c-0.2 0.138-0.434 0.219-0.677 0.234s-0.485-0.037-0.7-0.15-0.396-0.283-0.522-0.491c-0.126-0.208-0.193-0.447-0.193-0.69v-24c-0-0.243 0.067-0.482 0.193-0.69s0.307-0.378 0.522-0.491zM9.804 25.455l13.657-9.455-13.657-9.455v18.909z"></path>
</symbol>
<symbol id="icon-google-play" viewBox="0 0 28 32">
<path fill="#ea4335" style="fill: var(--color2, #ea4335)" d="M12.921 15.301l-12.8 13.689c0.404 1.493 1.745 2.574 3.339 2.577h0c0.64 0 1.239-0.175 1.754-0.479l0.042-0.024 14.411-8.372-6.746-7.391z"></path>
<path fill="#fbbc04" style="fill: var(--color3, #fbbc04)" d="M25.874 12.973l-0.012-0.009-6.222-3.631-7.010 6.279 7.035 7.079 6.188-3.593c1.094-0.603 1.822-1.749 1.822-3.065 0-0.002 0-0.003 0-0.005v0c0-1.319-0.727-2.465-1.802-3.056z"></path>
<path fill="#4285f4" style="fill: var(--color4, #4285f4)" d="M0.118 3.018c-0.077 0.285-0.118 0.586-0.118 0.894v24.173c0 0.31 0.041 0.61 0.119 0.894l13.242-13.329-13.244-12.633z"></path>
<path fill="#34a853" style="fill: var(--color5, #34a853)" d="M13.016 16l6.627-6.668-14.395-8.403c-0.508-0.312-1.123-0.496-1.781-0.496-0.002 0-0.004 0-0.006 0h0c-1.596 0.004-2.938 1.087-3.336 2.557l-0.006 0.024-0.002 0.004 12.899 12.982z"></path>
</symbol>
<symbol id="icon-star" viewBox="0 0 32 32">
<path fill="#fcc21b" style="fill: var(--color6, #fcc21b)" d="M20.198 18.392l1.658 6.756-5.856-3.708-5.853 3.708 1.661-6.756-5.28-4.383 6.88-0.552 2.592-6.332 2.595 6.332 6.879 0.55-5.275 4.384z"></path>
<path fill="#f79329" style="fill: var(--color7, #f79329)" d="M31.165 12.205c-0.097-0.299-0.36-0.517-0.678-0.545l-0.003-0-9.994-0.796-3.763-9.194c-0.121-0.287-0.401-0.484-0.726-0.484s-0.604 0.198-0.724 0.479l-0.002 0.005-3.763 9.194-9.997 0.796c-0.321 0.029-0.585 0.246-0.682 0.54l-0.002 0.006c-0.022 0.070-0.035 0.15-0.035 0.233 0 0.243 0.109 0.46 0.281 0.606l0.001 0.001 7.656 6.358-2.406 9.805c-0.015 0.057-0.023 0.122-0.023 0.189 0 0.431 0.349 0.78 0.78 0.78 0.001 0 0.001 0 0.002 0h-0c0.156-0 0.301-0.045 0.423-0.122l-0.003 0.002 8.494-5.376 8.494 5.373c0.119 0.077 0.264 0.123 0.42 0.123 0.335 0 0.62-0.211 0.73-0.508l0.002-0.005c0.031-0.080 0.048-0.173 0.048-0.27 0-0.066-0.008-0.131-0.024-0.192l0.001 0.005-2.406-9.805 7.654-6.359c0.174-0.143 0.283-0.358 0.283-0.599 0-0.085-0.014-0.167-0.039-0.244l0.002 0.005zM20.197 18.392l1.661 6.756-5.859-3.708-5.856 3.706 1.66-6.756-5.28-4.383 6.881-0.55 2.595-6.33 2.595 6.332 6.879 0.549-5.276 4.385z"></path>
</symbol>
<symbol id="icon-rate" viewBox="0 0 203 32">
<path fill="#fcc21b" style="fill: var(--color1, #fcc21b)" d="M20.373 18.825l1.727 7.038-6.1-3.863-6.098 3.863 1.73-7.038-5.5-4.565 7.168-0.575 2.7-6.595 2.703 6.595 7.165 0.575-5.495 4.565z"></path>
<path fill="#f79329" style="fill: var(--color2, #f79329)" d="M31.798 12.38c-0.049-0.154-0.142-0.291-0.269-0.392s-0.28-0.162-0.441-0.176l-10.41-0.83-3.92-9.578c-0.062-0.15-0.167-0.278-0.302-0.368s-0.293-0.138-0.456-0.137c-0.33 0-0.628 0.197-0.755 0.505l-3.92 9.578-10.412 0.83c-0.161 0.014-0.315 0.075-0.442 0.176s-0.221 0.237-0.271 0.391c-0.095 0.318 0.003 0.662 0.258 0.875l7.975 6.622-2.508 10.213c-0.080 0.323 0.045 0.663 0.315 0.855 0.143 0.105 0.308 0.155 0.475 0.155 0.152 0 0.305-0.043 0.438-0.125l8.848-5.6 8.847 5.597c0.283 0.18 0.643 0.167 0.913-0.027 0.132-0.095 0.233-0.227 0.289-0.379s0.065-0.318 0.026-0.476l-2.507-10.213 7.975-6.625c0.125-0.103 0.216-0.241 0.262-0.397s0.043-0.321-0.007-0.476zM20.373 18.825l1.73 7.037-6.102-3.863-6.1 3.86 1.73-7.037-5.5-4.565 7.168-0.572 2.703-6.595 2.702 6.595 7.165 0.572-5.495 4.568z"></path>
<path fill="#fcc21b" style="fill: var(--color1, #fcc21b)" d="M63.039 18.825l1.727 7.038-6.1-3.863-6.097 3.863 1.73-7.038-5.5-4.565 7.167-0.575 2.7-6.595 2.703 6.595 7.165 0.575-5.495 4.565z"></path>
<path fill="#f79329" style="fill: var(--color2, #f79329)" d="M74.464 12.38c-0.049-0.154-0.142-0.291-0.269-0.392s-0.28-0.162-0.441-0.176l-10.41-0.83-3.92-9.578c-0.062-0.15-0.167-0.278-0.302-0.368s-0.293-0.138-0.456-0.137c-0.33 0-0.628 0.197-0.755 0.505l-3.92 9.578-10.413 0.83c-0.161 0.014-0.315 0.075-0.442 0.176s-0.221 0.237-0.271 0.391c-0.095 0.318 0.002 0.662 0.257 0.875l7.975 6.622-2.507 10.213c-0.080 0.323 0.045 0.663 0.315 0.855 0.142 0.105 0.307 0.155 0.475 0.155 0.153 0 0.305-0.043 0.437-0.125l8.848-5.6 8.847 5.597c0.283 0.18 0.643 0.167 0.913-0.027 0.132-0.095 0.233-0.227 0.289-0.379s0.065-0.318 0.026-0.476l-2.507-10.213 7.975-6.625c0.125-0.103 0.216-0.241 0.262-0.397s0.043-0.321-0.007-0.476zM63.039 18.825l1.73 7.037-6.102-3.863-6.1 3.86 1.73-7.037-5.5-4.565 7.167-0.572 2.703-6.595 2.702 6.595 7.165 0.572-5.495 4.568z"></path>
<path fill="#fcc21b" style="fill: var(--color1, #fcc21b)" d="M105.706 18.825l1.727 7.038-6.1-3.863-6.097 3.863 1.73-7.038-5.5-4.565 7.167-0.575 2.7-6.595 2.703 6.595 7.165 0.575-5.495 4.565z"></path>
<path fill="#f79329" style="fill: var(--color2, #f79329)" d="M117.131 12.38c-0.049-0.154-0.142-0.291-0.269-0.392s-0.28-0.162-0.441-0.176l-10.41-0.83-3.92-9.578c-0.062-0.15-0.167-0.278-0.302-0.368s-0.293-0.138-0.456-0.137c-0.33 0-0.628 0.197-0.755 0.505l-3.92 9.578-10.413 0.83c-0.161 0.014-0.315 0.075-0.442 0.176s-0.221 0.237-0.271 0.391c-0.095 0.318 0.002 0.662 0.257 0.875l7.975 6.622-2.507 10.213c-0.080 0.323 0.045 0.663 0.315 0.855 0.142 0.105 0.307 0.155 0.475 0.155 0.153 0 0.305-0.043 0.437-0.125l8.848-5.6 8.847 5.597c0.283 0.18 0.643 0.167 0.913-0.027 0.132-0.095 0.233-0.227 0.289-0.379s0.065-0.318 0.026-0.476l-2.507-10.213 7.975-6.625c0.125-0.103 0.216-0.241 0.262-0.397s0.043-0.321-0.007-0.476zM105.706 18.825l1.73 7.037-6.102-3.863-6.1 3.86 1.73-7.037-5.5-4.565 7.167-0.572 2.703-6.595 2.702 6.595 7.165 0.572-5.495 4.568z"></path>
<path fill="#fcc21b" style="fill: var(--color1, #fcc21b)" d="M148.372 18.825l1.728 7.038-6.1-3.863-6.097 3.863 1.729-7.038-5.5-4.565 7.168-0.575 2.7-6.595 2.703 6.595 7.165 0.575-5.496 4.565z"></path>
<path fill="#f79329" style="fill: var(--color2, #f79329)" d="M159.797 12.38c-0.048-0.154-0.143-0.291-0.268-0.392-0.127-0.101-0.28-0.162-0.441-0.176l-10.411-0.83-3.92-9.578c-0.061-0.15-0.167-0.278-0.301-0.368s-0.293-0.138-0.456-0.137c-0.329 0-0.628 0.197-0.755 0.505l-3.92 9.578-10.413 0.83c-0.161 0.014-0.315 0.075-0.442 0.176s-0.221 0.237-0.271 0.391c-0.095 0.318 0.002 0.662 0.257 0.875l7.974 6.622-2.507 10.213c-0.080 0.323 0.045 0.663 0.315 0.855 0.143 0.105 0.308 0.155 0.475 0.155 0.153 0 0.305-0.043 0.437-0.125l8.848-5.6 8.848 5.597c0.283 0.18 0.643 0.167 0.912-0.027 0.132-0.095 0.233-0.227 0.289-0.379s0.065-0.318 0.025-0.476l-2.507-10.213 7.975-6.625c0.125-0.103 0.216-0.241 0.261-0.397s0.044-0.321-0.007-0.476zM148.372 18.825l1.731 7.037-6.103-3.863-6.1 3.86 1.731-7.037-5.5-4.565 7.167-0.572 2.703-6.595 2.703 6.595 7.165 0.572-5.496 4.568z"></path>
<path fill="#fcc21b" style="fill: var(--color1, #fcc21b)" d="M191.039 18.825l1.728 7.038-6.1-3.863-6.097 3.863 1.729-7.038-5.5-4.565 7.168-0.575 2.7-6.595 2.703 6.595 7.165 0.575-5.496 4.565z"></path>
<path fill="#f79329" style="fill: var(--color2, #f79329)" d="M202.464 12.38c-0.048-0.154-0.143-0.291-0.268-0.392-0.127-0.101-0.28-0.162-0.441-0.176l-10.411-0.83-3.92-9.578c-0.061-0.15-0.167-0.278-0.301-0.368s-0.293-0.138-0.456-0.137c-0.329 0-0.628 0.197-0.755 0.505l-3.92 9.578-10.413 0.83c-0.161 0.014-0.315 0.075-0.441 0.176s-0.221 0.237-0.271 0.391c-0.095 0.318 0.003 0.662 0.257 0.875l7.975 6.622-2.507 10.213c-0.080 0.323 0.045 0.663 0.315 0.855 0.143 0.105 0.308 0.155 0.475 0.155 0.153 0 0.305-0.043 0.437-0.125l8.848-5.6 8.848 5.597c0.283 0.18 0.643 0.167 0.912-0.027 0.132-0.095 0.233-0.227 0.289-0.379s0.065-0.318 0.025-0.476l-2.507-10.213 7.975-6.625c0.125-0.103 0.216-0.241 0.261-0.397s0.044-0.321-0.007-0.476zM191.039 18.825l1.731 7.037-6.103-3.863-6.1 3.86 1.731-7.037-5.5-4.565 7.167-0.572 2.703-6.595 2.703 6.595 7.165 0.572-5.496 4.568z"></path>
</symbol>

</defs>
</svg>
