<svg aria-hidden="true" style="position: absolute; width: 0; height: 0; overflow: hidden;" version="1.1" xmlns="http://www.w3.org/2000/svg" xmlns:xlink="http://www.w3.org/1999/xlink">
<defs>
<symbol id="icon-arrow-left" viewBox="0 0 32 32">
<path fill="#05c" style="fill: var(--color1, #05c)" d="M24.147 2.819c-0.179-0.096-0.392-0.153-0.619-0.153-0.283 0-0.546 0.089-0.762 0.239l0.004-0.003-17.333 12c-0.347 0.245-0.571 0.645-0.571 1.097s0.224 0.851 0.567 1.094l0.004 0.003 17.333 12c0.212 0.148 0.475 0.237 0.759 0.237 0.736 0 1.333-0.597 1.333-1.333v-24c0-0 0-0 0-0 0-0.51-0.287-0.953-0.707-1.178l-0.007-0.003zM22.196 25.455l-13.657-9.453 13.657-9.456v18.909z"></path>
</symbol>
<symbol id="icon-arrow-right" viewBox="0 0 32 32">
<path fill="#05c" style="fill: var(--color1, #05c)" d="M7.853 29.181c0.179 0.096 0.392 0.153 0.619 0.153 0.283 0 0.546-0.089 0.762-0.239l-0.004 0.003 17.333-12c0.347-0.245 0.571-0.645 0.571-1.097s-0.224-0.851-0.567-1.094l-0.004-0.003-17.333-12c-0.212-0.148-0.475-0.237-0.759-0.237-0.736 0-1.333 0.597-1.333 1.333v24c0 0 0 0 0 0 0 0.51 0.287 0.953 0.707 1.178l0.007 0.003zM9.803 6.545l13.657 9.453-13.657 9.456v-18.909z"></path>
</symbol>
<symbol id="icon-burger" viewBox="0 0 31 32">
<path stroke-linejoin="round" stroke-linecap="round" stroke-miterlimit="4" stroke-width="3.2432" d="M3.892 8.216h23.351M3.892 16h23.351M3.892 23.784h23.351"></path>
</symbol>
<symbol id="icon-close" viewBox="0 0 32 32">
<path d="M7.988 5.144l8.012 8.012 7.971-7.971c0.344-0.366 0.83-0.596 1.369-0.602h0.001c1.146 0 2.076 0.929 2.076 2.076v0c0 0.011 0 0.023 0 0.036 0 0.523-0.215 0.995-0.56 1.334l-0 0-8.074 7.971 8.074 8.074c0.343 0.335 0.543 0.787 0.56 1.266 0 1.146-0.929 2.076-2.076 2.076v0c-0.023 0.001-0.051 0.002-0.079 0.002-0.529 0-1.007-0.215-1.353-0.562l-0-0-7.908-8.012-7.991 7.991c-0.342 0.353-0.819 0.575-1.348 0.581h-0.001c-1.146 0-2.076-0.929-2.076-2.076v0c-0-0.011-0-0.023-0-0.036 0-0.523 0.215-0.995 0.56-1.334l0-0 8.074-7.971-8.074-8.074c-0.331-0.324-0.541-0.769-0.56-1.263l-0-0.003c0-1.146 0.929-2.076 2.076-2.076v0c0.498 0.006 0.976 0.208 1.328 0.56z"></path>
</symbol>
<symbol id="icon-google-play" viewBox="0 0 28 32">
<path fill="#ea4335" style="fill: var(--color2, #ea4335)" d="M12.921 15.301l-12.8 13.689c0.404 1.493 1.745 2.574 3.339 2.577h0c0.64 0 1.239-0.175 1.754-0.479l0.042-0.024 14.411-8.372-6.746-7.391z"></path>
<path fill="#fbbc04" style="fill: var(--color3, #fbbc04)" d="M25.874 12.973l-0.012-0.009-6.222-3.631-7.010 6.279 7.035 7.079 6.188-3.593c1.094-0.603 1.822-1.749 1.822-3.065 0-0.002 0-0.003 0-0.005v0c0-1.319-0.727-2.465-1.802-3.056z"></path>
<path fill="#4285f4" style="fill: var(--color4, #4285f4)" d="M0.118 3.018c-0.077 0.285-0.118 0.586-0.118 0.894v24.173c0 0.31 0.041 0.61 0.119 0.894l13.242-13.329-13.244-12.633z"></path>
<path fill="#34a853" style="fill: var(--color5, #34a853)" d="M13.016 16l6.627-6.668-14.395-8.403c-0.508-0.312-1.123-0.496-1.781-0.496-0.002 0-0.004 0-0.006 0h0c-1.596 0.004-2.938 1.087-3.336 2.557l-0.006 0.024-0.002 0.004 12.899 12.982z"></path>
</symbol>
<symbol id="icon-star" viewBox="0 0 32 32">
<path fill="#fcc21b" style="fill: var(--color6, #fcc21b)" d="M20.198 18.392l1.658 6.756-5.856-3.708-5.853 3.708 1.661-6.756-5.28-4.383 6.88-0.552 2.592-6.332 2.595 6.332 6.879 0.55-5.275 4.384z"></path>
<path fill="#f79329" style="fill: var(--color7, #f79329)" d="M31.165 12.205c-0.097-0.299-0.36-0.517-0.678-0.545l-0.003-0-9.994-0.796-3.763-9.194c-0.121-0.287-0.401-0.484-0.726-0.484s-0.604 0.198-0.724 0.479l-0.002 0.005-3.763 9.194-9.997 0.796c-0.321 0.029-0.585 0.246-0.682 0.54l-0.002 0.006c-0.022 0.070-0.035 0.15-0.035 0.233 0 0.243 0.109 0.46 0.281 0.606l0.001 0.001 7.656 6.358-2.406 9.805c-0.015 0.057-0.023 0.122-0.023 0.189 0 0.431 0.349 0.78 0.78 0.78 0.001 0 0.001 0 0.002 0h-0c0.156-0 0.301-0.045 0.423-0.122l-0.003 0.002 8.494-5.376 8.494 5.373c0.119 0.077 0.264 0.123 0.42 0.123 0.335 0 0.62-0.211 0.73-0.508l0.002-0.005c0.031-0.080 0.048-0.173 0.048-0.27 0-0.066-0.008-0.131-0.024-0.192l0.001 0.005-2.406-9.805 7.654-6.359c0.174-0.143 0.283-0.358 0.283-0.599 0-0.085-0.014-0.167-0.039-0.244l0.002 0.005zM20.197 18.392l1.661 6.756-5.859-3.708-5.856 3.706 1.66-6.756-5.28-4.383 6.881-0.55 2.595-6.33 2.595 6.332 6.879 0.549-5.276 4.385z"></path>
</symbol>
</defs>
</svg>
